<?xml version="1.0" encoding="utf-8"?>
<!-- Generator: Adobe Illustrator 16.0.4, SVG Export Plug-In . SVG Version: 6.00 Build 0)  -->
<!DOCTYPE svg PUBLIC "-//W3C//DTD SVG 1.1//EN" "http://www.w3.org/Graphics/SVG/1.1/DTD/svg11.dtd">
<svg version="1.1" id="Layer_1" xmlns="http://www.w3.org/2000/svg" xmlns:xlink="http://www.w3.org/1999/xlink" x="0px" y="0px"
	 width="64px" height="64px" viewBox="0 0 64 64" enable-background="new 0 0 64 64" xml:space="preserve">
<g>
	<path fill="#F7F7F7" d="M16.604,62.894l8.028-13.52c0.591-1.008,0.142-2.24-1.017-2.756c-1.157-0.518-2.579-0.124-3.177,0.881
		l-5.093,8.577c-1.22-7.767,0.55-16.015,0.574-16.117C19.995,17.478,40.337,1.564,61.277,4.422c1.287,0.174,2.492-0.588,2.695-1.704
		C63.991,2.609,64,2.504,64,2.397c0-0.99-0.828-1.859-1.992-2.019c-23.509-3.207-46.269,14.233-50.736,38.88
		c-0.084,0.377-1.793,8.36-0.717,16.481l-6.549-5.558c-0.932-0.791-2.424-0.776-3.334,0.031c-0.911,0.811-0.893,2.105,0.037,2.895
		l12.146,10.311c0.027,0.021,0.063,0.029,0.09,0.051c0.194,0.148,0.406,0.274,0.645,0.362c0.023,0.008,0.041,0.024,0.064,0.03
		c0.217,0.074,0.448,0.121,0.687,0.136c0.039,0.002,0.075-0.008,0.115-0.008c0.078,0.002,0.15-0.011,0.226-0.017
		c0.207-0.012,0.405-0.048,0.596-0.105c0.077-0.023,0.149-0.044,0.225-0.076c0.248-0.102,0.483-0.227,0.678-0.398
		c0.004-0.002,0.007-0.004,0.01-0.006l0.002-0.002C16.354,63.241,16.493,63.077,16.604,62.894z"/>
</g>
</svg>
