<?xml version="1.0" encoding="UTF-8"?>
<svg width="278px" height="273px" viewBox="0 0 278 273" version="1.1" xmlns="http://www.w3.org/2000/svg" xmlns:xlink="http://www.w3.org/1999/xlink">
    <!-- Generator: Sketch 43.2 (39069) - http://www.bohemiancoding.com/sketch -->
    <title>trashcan</title>
    <desc>Created with Sketch.</desc>
    <defs></defs>
    <g id="Page-1" stroke="none" stroke-width="1" fill="none" fill-rule="evenodd">
        <g id="trashcan" stroke="#424142">
            <g id="can" transform="translate(34.000000, 25.000000)" stroke-width="11">
                <path d="M6.10267557,5.5 L203.897324,5.5 L181.704451,218.551583 C180.795588,227.276669 172.775723,234.5 164.000592,234.5 L45.9994083,234.5 C37.2203583,234.5 29.2044461,227.276997 28.2955488,218.551583 L6.10267557,5.5 Z" id="Rectangle"></path>
                <g id="Group" transform="translate(36.000000, 35.000000)" stroke-linecap="square">
                    <path d="M54.5,0.5 L54.5,171.511696" id="Line"></path>
                    <path d="M0.0508874678,1.10903141 L14.9555388,171.469976" id="Line-Copy-3"></path>
                    <path d="M90.5,0.5 L90.5,171.511696" id="Line-Copy"></path>
                    <path d="M137.94721,1.15260928 L123.042559,171.513554" id="Line-Copy-2"></path>
                </g>
            </g>
            <g id="lit" transform="translate(12.000000, 10.000000)">
                <path d="M0,20.5 L254.001968,20.5" id="Line" stroke-width="11" stroke-linecap="square"></path>
                <path d="M152.5,17.5 L102.5,17.5 L102.5,10 C102.5,5.85895304 105.857185,2.5 109.991972,2.5 L145.008028,2.5 C149.145746,2.5 152.5,5.85666709 152.5,10 L152.5,17.5 Z" id="Rectangle-2" stroke-width="5"></path>
            </g>
        </g>
    </g>
</svg>