<?xml version="1.0" encoding="utf-8"?>
<!DOCTYPE svg PUBLIC "-//W3C//DTD SVG 1.1//EN" "http://www.w3.org/Graphics/SVG/1.1/DTD/svg11.dtd">
<svg version="1.1" id="Layer_1" xmlns="http://www.w3.org/2000/svg" xmlns:xlink="http://www.w3.org/1999/xlink" x="0px" y="0px"
	 width="228px" height="44.91px" viewBox="0 0 228 44.91" enable-background="new 0 0 228 44.91" xml:space="preserve">
<path fill="#231F20" d="M51.85,42.061l-1.073-2.592h-5.395l-1.072,2.592h-0.53l4.024-9.664h0.556l4.027,9.664H51.85z M48.086,32.926
	l-2.528,6.112h5.046L48.086,32.926z"/>
<path fill="#231F20" d="M56.645,37.235c0-2.991,2.248-4.997,5.166-4.997c2.118,0,3.349,1.146,4.037,2.363l-1.777,0.864
	c-0.399-0.778-1.271-1.409-2.259-1.409c-1.771,0-3.047,1.349-3.047,3.178c0,1.832,1.275,3.179,3.047,3.179
	c0.988,0,1.86-0.63,2.259-1.403l1.777,0.845c-0.688,1.213-1.92,2.389-4.037,2.389C58.893,42.245,56.645,40.213,56.645,37.235"/>
<path fill="#231F20" d="M66.433,38.552c0-1.979,1.392-3.663,3.7-3.663c2.325,0,3.713,1.685,3.713,3.663
	c0,1.99-1.388,3.692-3.713,3.692C67.824,42.245,66.433,40.542,66.433,38.552 M71.93,38.552c0-1.089-0.634-2.029-1.796-2.029
	c-1.147,0-1.784,0.94-1.784,2.029c0,1.101,0.636,2.045,1.784,2.045C71.297,40.598,71.93,39.654,71.93,38.552"/>
<path fill="#231F20" d="M74.933,43.86l0.83-1.315c0.561,0.602,1.316,0.857,2.189,0.857c0.878,0,1.934-0.385,1.934-1.803v-0.685
	c-0.546,0.7-1.301,1.09-2.172,1.09c-1.732,0-3.08-1.216-3.08-3.552c0-2.29,1.318-3.563,3.08-3.563c0.843,0,1.614,0.346,2.172,1.072
	v-0.901h1.846V41.6c0,2.654-2.061,3.311-3.78,3.311C76.759,44.908,75.821,44.635,74.933,43.86 M79.886,39.582v-2.275
	c-0.313-0.443-0.985-0.784-1.574-0.784c-1.058,0-1.789,0.725-1.789,1.929c0,1.203,0.728,1.934,1.789,1.934
	C78.9,40.386,79.572,40.039,79.886,39.582"/>
<path fill="#231F20" d="M88.144,42.061v-4.225c0-0.973-0.514-1.313-1.289-1.313c-0.729,0-1.287,0.412-1.602,0.813v4.725h-1.839v-7
	h1.839v0.901c0.455-0.524,1.316-1.073,2.449-1.073c1.559,0,2.292,0.873,2.292,2.234v4.938H88.144L88.144,42.061z"/>
<path fill="#231F20" d="M91.493,33.205c0-0.605,0.488-1.085,1.087-1.085c0.6,0,1.102,0.479,1.102,1.085c0,0.611-0.501,1.1-1.102,1.1
	C91.98,34.305,91.493,33.814,91.493,33.205 M91.662,35.061h1.845v7h-1.845V35.061z"/>
<polygon fill="#231F20" points="94.881,42.061 94.881,40.686 98.047,36.678 94.881,36.678 94.881,35.061 100.55,35.061
	100.55,36.378 97.332,40.457 100.608,40.457 100.608,42.061 "/>
<path fill="#231F20" d="M106.189,42.061v-0.732c-0.472,0.572-1.303,0.916-2.217,0.916c-1.117,0-2.42-0.759-2.42-2.327
	c0-1.651,1.303-2.261,2.42-2.261c0.943,0,1.758,0.309,2.217,0.852v-0.885c0-0.703-0.613-1.176-1.532-1.176
	c-0.745,0-1.444,0.299-2.019,0.828l-0.727-1.283c0.857-0.773,1.96-1.104,3.061-1.104c1.605,0,3.077,0.643,3.077,2.649v4.522H106.189
	z M106.189,40.385v-0.873c-0.301-0.4-0.888-0.616-1.475-0.616c-0.729,0-1.328,0.389-1.328,1.056c0,0.661,0.6,1.04,1.328,1.04
	C105.303,40.991,105.891,40.784,106.189,40.385"/>
<path fill="#231F20" d="M114.434,42.061v-4.225c0-0.973-0.501-1.313-1.289-1.313c-0.716,0-1.275,0.412-1.59,0.813v4.725h-1.843v-7
	h1.843v0.901c0.444-0.524,1.317-1.073,2.45-1.073c1.545,0,2.292,0.873,2.292,2.234v4.938H114.434L114.434,42.061z"/>
<path fill="#231F20" d="M118.34,40.313v-3.635h-1.16v-1.617h1.16v-1.918h1.844v1.918h1.418v1.617h-1.418v3.135
	c0,0.458,0.231,0.786,0.634,0.786c0.271,0,0.539-0.102,0.643-0.213l0.39,1.401c-0.274,0.244-0.773,0.458-1.53,0.458
	C119.023,42.245,118.34,41.572,118.34,40.313"/>
<path fill="#231F20" d="M126.342,42.061v-9.664h3.816c3.026,0,5.127,1.924,5.127,4.822c0,2.934-2.101,4.84-5.11,4.84L126.342,42.061
	L126.342,42.061z M133.183,37.221c0-1.689-1.047-3.018-3.01-3.018h-1.774v6.051h1.759C132.066,40.254,133.183,38.88,133.183,37.221"
	/>
<path fill="#231F20" d="M136.388,33.205c0-0.605,0.497-1.085,1.086-1.085c0.616,0,1.105,0.479,1.105,1.085
	c0,0.611-0.489,1.1-1.105,1.1C136.885,34.305,136.388,33.814,136.388,33.205 M136.559,35.061h1.846v7h-1.846V35.061z"/>
<path fill="#231F20" d="M139.944,43.86l0.824-1.315c0.567,0.602,1.315,0.857,2.189,0.857c0.884,0,1.944-0.385,1.944-1.803v-0.685
	c-0.557,0.7-1.304,1.09-2.174,1.09c-1.747,0-3.093-1.216-3.093-3.552c0-2.29,1.318-3.563,3.093-3.563
	c0.843,0,1.604,0.346,2.174,1.072v-0.901h1.837V41.6c0,2.654-2.054,3.311-3.781,3.311C141.765,44.908,140.828,44.635,139.944,43.86
	 M144.902,39.582v-2.275c-0.316-0.443-0.988-0.784-1.59-0.784c-1.056,0-1.776,0.725-1.776,1.929c0,1.203,0.719,1.934,1.776,1.934
	C143.914,40.386,144.585,40.039,144.902,39.582"/>
<path fill="#231F20" d="M148.25,33.205c0-0.605,0.488-1.085,1.091-1.085c0.601,0,1.097,0.479,1.097,1.085
	c0,0.611-0.496,1.1-1.097,1.1C148.738,34.305,148.25,33.814,148.25,33.205 M148.419,35.061h1.848v7h-1.848V35.061z"/>
<path fill="#231F20" d="M152.323,40.313v-3.635h-1.164v-1.617h1.164v-1.918h1.839v1.918h1.417v1.617h-1.417v3.135
	c0,0.458,0.228,0.786,0.644,0.786c0.279,0,0.529-0.102,0.632-0.213l0.398,1.401c-0.284,0.244-0.77,0.458-1.544,0.458
	C153.002,42.245,152.323,41.572,152.323,40.313"/>
<path fill="#231F20" d="M160.901,42.061v-0.732c-0.47,0.572-1.303,0.916-2.218,0.916c-1.116,0-2.416-0.759-2.416-2.327
	c0-1.651,1.3-2.261,2.416-2.261c0.945,0,1.76,0.309,2.218,0.852v-0.885c0-0.703-0.601-1.176-1.531-1.176
	c-0.743,0-1.433,0.299-2.02,0.828l-0.726-1.283c0.858-0.773,1.961-1.104,3.063-1.104c1.617,0,3.078,0.643,3.078,2.649v4.522H160.901
	z M160.901,40.385v-0.873c-0.298-0.4-0.885-0.616-1.473-0.616c-0.73,0-1.317,0.389-1.317,1.056c0,0.661,0.587,1.04,1.317,1.04
	C160.018,40.991,160.604,40.784,160.901,40.385"/>
<rect x="164.426" y="32.398" fill="#231F20" width="1.841" height="9.664"/>
<path fill="#231F20" d="M171.578,42.061v-9.664h5.086c1.842,0,2.788,1.175,2.788,2.463c0,1.199-0.761,2.031-1.67,2.217
	c1.04,0.158,1.853,1.16,1.853,2.362c0,1.461-0.948,2.619-2.809,2.619L171.578,42.061L171.578,42.061z M177.351,35.219
	c0-0.59-0.437-1.016-1.133-1.016h-2.581v2.035h2.581C176.914,36.238,177.351,35.848,177.351,35.219 M177.533,39.153
	c0-0.615-0.431-1.101-1.23-1.101h-2.664v2.202h2.664C177.072,40.254,177.533,39.842,177.533,39.153"/>
<path fill="#231F20" d="M185.728,42.061v-0.877c-0.483,0.515-1.322,1.06-2.473,1.06c-1.53,0-2.261-0.845-2.261-2.206v-4.979h1.849
	v4.252c0,0.972,0.504,1.286,1.288,1.286c0.714,0,1.269-0.386,1.597-0.796V35.06h1.837v6.999h-1.837V42.061z"/>
<path fill="#231F20" d="M188.639,41.156l0.8-1.345c0.517,0.501,1.546,0.972,2.421,0.972c0.799,0,1.172-0.301,1.172-0.73
	c0-1.142-4.145-0.213-4.145-2.96c0-1.177,1.009-2.206,2.873-2.206c1.177,0,2.116,0.4,2.811,0.959l-0.738,1.303
	c-0.425-0.43-1.217-0.814-2.072-0.814c-0.669,0-1.104,0.297-1.104,0.688c0,1.027,4.163,0.154,4.163,2.991
	c0,1.286-1.102,2.231-3.043,2.231C190.554,42.245,189.38,41.829,188.639,41.156"/>
<path fill="#231F20" d="M195.846,33.205c0-0.605,0.487-1.085,1.101-1.085c0.593,0,1.093,0.479,1.093,1.085
	c0,0.611-0.5,1.1-1.093,1.1C196.333,34.305,195.846,33.814,195.846,33.205 M196.025,35.061h1.833v7h-1.833V35.061z"/>
<path fill="#231F20" d="M204.266,42.061v-4.225c0-0.973-0.506-1.313-1.293-1.313c-0.72,0-1.272,0.412-1.583,0.813v4.725h-1.848v-7
	h1.848v0.901c0.445-0.524,1.317-1.073,2.455-1.073c1.538,0,2.279,0.873,2.279,2.234v4.938H204.266L204.266,42.061z"/>
<path fill="#231F20" d="M207.345,38.552c0-2.029,1.504-3.663,3.625-3.663c2.102,0,3.495,1.56,3.495,3.836v0.442h-5.193
	c0.134,0.857,0.814,1.558,2.015,1.558c0.585,0,1.394-0.242,1.857-0.672l0.821,1.217c-0.692,0.631-1.805,0.973-2.881,0.973
	C208.955,42.245,207.345,40.803,207.345,38.552 M210.97,36.392c-1.151,0-1.637,0.801-1.714,1.505h3.44
	C212.636,37.221,212.176,36.392,210.97,36.392"/>
<path fill="#231F20" d="M215.05,41.156l0.807-1.345c0.511,0.501,1.547,0.972,2.419,0.972c0.786,0,1.164-0.301,1.164-0.73
	c0-1.142-4.131-0.213-4.131-2.96c0-1.177,1.003-2.206,2.863-2.206c1.163,0,2.12,0.4,2.809,0.959l-0.731,1.301
	c-0.42-0.43-1.231-0.814-2.077-0.814c-0.663,0-1.113,0.295-1.113,0.689c0,1.025,4.162,0.152,4.162,2.988
	c0,1.287-1.092,2.232-3.035,2.232C216.958,42.245,215.798,41.829,215.05,41.156"/>
<path fill="#231F20" d="M221.826,41.156l0.798-1.345c0.514,0.501,1.555,0.972,2.42,0.972c0.791,0,1.173-0.301,1.173-0.73
	c0-1.142-4.139-0.213-4.139-2.96c0-1.177,1.002-2.206,2.867-2.206c1.167,0,2.115,0.4,2.801,0.959l-0.729,1.301
	c-0.42-0.43-1.227-0.814-2.072-0.814c-0.664,0-1.11,0.295-1.11,0.689c0,1.025,4.157,0.152,4.157,2.988
	c0,1.287-1.089,2.232-3.031,2.232C223.729,42.245,222.566,41.829,221.826,41.156"/>
<polygon fill="#231F20" points="0,2.151 9.625,2.151 14.486,17.384 14.55,17.384 19.645,2.151 28.9,2.151 28.9,25.069
	22.925,25.069 23.024,7.465 22.96,7.465 17.117,25.069 11.5,25.069 5.918,7.465 5.844,7.465 5.983,25.069 0,25.069 "/>
<rect x="33.337" y="2.151" fill="#231F20" width="6.113" height="22.918"/>
<path fill="#231F20" d="M43.884,2.151H54.79c4.063,0,7.382,1.834,7.382,5.783c0,3.047-1.441,5.081-4.402,5.778v0.063
	c1.971,0.523,2.103,2.266,3.253,5.057l2.232,6.235h-6.366l-1.319-4.139c-1.249-3.935-2.031-4.921-4.298-4.921h-1.285v9.06h-6.103
	V2.151z M49.986,11.671h1.617c1.969,0,4.463-0.063,4.463-2.656c0-2.134-2.134-2.537-4.463-2.537h-1.617V11.671z"/>
<path fill="#231F20" d="M72.816,2.151h7.493l8.833,22.918h-6.699l-1.714-4.887h-8.605l-1.799,4.887h-6.213L72.816,2.151z
	 M76.554,6.882h-0.062l-2.946,8.964h5.744L76.554,6.882z"/>
<path fill="#231F20" d="M91.409,2.151h10.535c4.273,0,7.457,1.869,7.457,5.815c0,2.883-1.469,4.498-4.042,5.351v0.069
	c3.057,0.615,4.628,2.265,4.628,5.047c0,5.487-4.823,6.635-8.933,6.635h-9.645V2.151z M97.51,11.218h1.714
	c2.001,0,4.063-0.5,4.063-2.435c0-2.099-1.959-2.301-4-2.301H97.51V11.218z M97.51,20.734h1.81c2.235,0,4.564-0.324,4.564-2.656
	c0-2.495-2.398-2.732-4.501-2.732h-1.875L97.51,20.734L97.51,20.734z"/>
<polygon fill="#231F20" points="113.337,2.151 129.501,2.151 129.501,6.479 119.457,6.479 119.457,11.218 128.936,11.218
	128.936,15.549 119.457,15.549 119.457,20.734 129.859,20.734 129.859,25.069 113.337,25.069 "/>
<path fill="#231F20" d="M140.44,2.151h7.49l8.829,22.918h-6.701l-1.705-4.887h-8.609l-1.799,4.887h-6.208L140.44,2.151z
	 M144.175,6.882h-0.061l-2.96,8.964h5.758L144.175,6.882z"/>
<path fill="#231F20" d="M178.959,15.988c0,6.275-4.06,9.095-10.051,9.095c-5.973,0-10.049-2.819-10.049-9.095V2.179h6.114v12.792
	c0,3.022,0.82,5.578,3.935,5.578c3.118,0,3.945-2.556,3.945-5.578V2.179h6.105V15.988z"/>
<polygon fill="#231F20" points="218.465,15.315 225.057,22.664 218.736,27.193 213.869,18.678 208.652,27.193 202.407,22.664
	209.138,15.315 199.727,13.194 201.991,6.055 211.126,9.966 210.018,0.014 217.853,0.014 216.675,9.896 225.804,6.055 228,13.194
	"/>
<rect x="188.972" fill="#231F20" width="0.847" height="27.194"/>
</svg>
