<?xml version="1.0" encoding="UTF-8"?>
<svg width="295px" height="211px" viewBox="0 0 295 211" version="1.1" xmlns="http://www.w3.org/2000/svg" xmlns:xlink="http://www.w3.org/1999/xlink">
    <!-- Generator: Sketch 44.1 (41455) - http://www.bohemiancoding.com/sketch -->
    <title>overview-two</title>
    <desc>Created with Sketch.</desc>
    <defs></defs>
    <g id="Page-1" stroke="none" stroke-width="1" fill="none" fill-rule="evenodd">
        <g id="overview-two">
            <g id="Group" transform="translate(35.000000, 10.000000)">
                <path d="M20.5038029,182.7 C70.8897611,182.7 111.735651,141.801212 111.735651,91.35 C111.735651,40.8987881 70.8897611,0 20.5038029,0 C20.5038029,0.676666667 20.5038029,31.1266667 20.5038029,91.35 C20.5038029,152.25 20.5038029,182.7 20.5038029,182.7 Z" id="Oval-12-Copy-8" fill="#87A6CB" transform="translate(66.119727, 91.350000) rotate(-180.000000) translate(-66.119727, -91.350000) "></path>
                <path d="M41.0492519,208.515601 C91.43521,208.515601 132.2811,167.616813 132.2811,117.165601 C132.2811,66.7143894 98.0592157,53.7563616 47.6732575,53.7563616 C47.6732575,54.4330282 45.4652556,75.5694415 41.0492519,117.165601 C41.0492519,178.065601 41.0492519,208.515601 41.0492519,208.515601 Z" id="Oval-12-Copy-9" fill="#7E99BA" transform="translate(86.665176, 131.135981) rotate(-255.000000) translate(-86.665176, -131.135981) "></path>
                <path d="M110.721963,182.7 C161.107921,182.7 201.953811,141.801212 201.953811,91.35 C201.953811,40.8987881 161.107921,0 110.721963,0 C110.721963,0.676666667 110.721963,31.1266667 110.721963,91.35 C110.721963,152.25 110.721963,182.7 110.721963,182.7 Z" id="Oval-12-Copy-10" fill="#7287A0" transform="translate(156.337887, 91.350000) rotate(-360.000000) translate(-156.337887, -91.350000) "></path>
            </g>
            <text id="Transavia-Copy" font-family="Lato-Regular, Lato" font-size="16" font-weight="normal" fill="#4A4A4A">
                <tspan x="220.244" y="45">Transavia</tspan>
            </text>
            <text id="Nuon-Copy" font-family="Lato-Regular, Lato" font-size="16" font-weight="normal" fill="#4A4A4A">
                <tspan x="33" y="171">Nuon</tspan>
            </text>
            <text id="Maxeda-Copy" font-family="Lato-Regular, Lato" font-size="16" font-weight="normal" fill="#4A4A4A">
                <tspan x="22.144" y="32">Maxeda</tspan>
            </text>
        </g>
    </g>
</svg>